# xmcd
#
# Track frame offsets: 
#        150
#        16669
#        44029
#        62661
#        90297
#        118264
#        140663
#        165011
#        193224
#        256173
#
# Disc length: 4272 seconds
#
# Revision: 1
# Processed by: cddbd v1.5.2PL0 Copyright (c) Steve Scherf et al.
# Submitted via: ExactAudioCopy v0.99pb4
#
DISCID=7f10ae0a
DTITLE=Marshall Tucker Band - 1976-03-12 Orpheum Theatre, Boston, MA (
DTITLE=Late Show 10 pm)
DYEAR=1976
DGENRE=Southern Rock
TTITLE0=Hillbilly band
TTITLE1=Blue ridge mountain sky
TTITLE2=Long hard ride
TTITLE3=Searchin' for a rainbow
TTITLE4=Can't you see
TTITLE5=Bound and determined
TTITLE6=Fire on the mountain
TTITLE7=Take the highway
TTITLE8=24 Hours at a time
TTITLE9=Everyday I have the blues
EXTD=
EXTT0=
EXTT1=
EXTT2=
EXTT3=
EXTT4=
EXTT5=
EXTT6=
EXTT7=
EXTT8=
EXTT9=
PLAYORDER=
